<mxfile host="app.diagrams.net" agent="Mozilla/5.0 (Windows NT 10.0; Win64; x64) AppleWebKit/537.36 (KHTML, like Gecko) Chrome/134.0.0.0 Safari/537.36" version="26.1.3">
  <diagram name="Page-1" id="hAe2Lc8hlMuBLfMeI2do">
    <mxGraphModel dx="794" dy="458" grid="1" gridSize="10" guides="1" tooltips="1" connect="1" arrows="1" fold="1" page="1" pageScale="1" pageWidth="850" pageHeight="1100" math="0" shadow="0">
      <root>
        <mxCell id="0" />
        <mxCell id="1" parent="0" />
        <mxCell id="ac8gZ6GfhquLf5D6Cpzo-1" value="" style="outlineConnect=0;dashed=0;verticalLabelPosition=bottom;verticalAlign=top;align=center;html=1;shape=mxgraph.aws3.route_53;fillColor=#F58536;gradientColor=none;" vertex="1" parent="1">
          <mxGeometry x="270" y="460" width="50" height="70" as="geometry" />
        </mxCell>
        <mxCell id="ac8gZ6GfhquLf5D6Cpzo-2" value="A Record" style="rounded=1;whiteSpace=wrap;html=1;" vertex="1" parent="1">
          <mxGeometry x="425" y="430" width="90" height="30" as="geometry" />
        </mxCell>
        <mxCell id="ac8gZ6GfhquLf5D6Cpzo-3" value="A Record" style="rounded=1;whiteSpace=wrap;html=1;" vertex="1" parent="1">
          <mxGeometry x="425" y="530" width="90" height="30" as="geometry" />
        </mxCell>
        <mxCell id="ac8gZ6GfhquLf5D6Cpzo-4" value="" style="endArrow=classic;html=1;rounded=0;entryX=0;entryY=0.75;entryDx=0;entryDy=0;exitX=1;exitY=0.5;exitDx=0;exitDy=0;exitPerimeter=0;" edge="1" parent="1" source="ac8gZ6GfhquLf5D6Cpzo-1" target="ac8gZ6GfhquLf5D6Cpzo-2">
          <mxGeometry width="50" height="50" relative="1" as="geometry">
            <mxPoint x="345" y="490" as="sourcePoint" />
            <mxPoint x="395" y="440" as="targetPoint" />
          </mxGeometry>
        </mxCell>
        <mxCell id="ac8gZ6GfhquLf5D6Cpzo-5" value="" style="endArrow=classic;html=1;rounded=0;entryX=0;entryY=0.75;entryDx=0;entryDy=0;" edge="1" parent="1" target="ac8gZ6GfhquLf5D6Cpzo-3">
          <mxGeometry width="50" height="50" relative="1" as="geometry">
            <mxPoint x="320" y="500" as="sourcePoint" />
            <mxPoint x="385" y="490" as="targetPoint" />
          </mxGeometry>
        </mxCell>
        <mxCell id="ac8gZ6GfhquLf5D6Cpzo-6" value="" style="outlineConnect=0;dashed=0;verticalLabelPosition=bottom;verticalAlign=top;align=center;html=1;shape=mxgraph.aws3.route_53;fillColor=#F58536;gradientColor=none;" vertex="1" parent="1">
          <mxGeometry x="228" y="696" width="50" height="70" as="geometry" />
        </mxCell>
        <mxCell id="ac8gZ6GfhquLf5D6Cpzo-7" value="C Name" style="rounded=1;whiteSpace=wrap;html=1;" vertex="1" parent="1">
          <mxGeometry x="377" y="665" width="90" height="30" as="geometry" />
        </mxCell>
        <mxCell id="ac8gZ6GfhquLf5D6Cpzo-8" value="C Name" style="rounded=1;whiteSpace=wrap;html=1;" vertex="1" parent="1">
          <mxGeometry x="377" y="765" width="90" height="30" as="geometry" />
        </mxCell>
        <mxCell id="ac8gZ6GfhquLf5D6Cpzo-9" value="" style="endArrow=classic;html=1;rounded=0;entryX=0;entryY=0.75;entryDx=0;entryDy=0;" edge="1" parent="1" target="ac8gZ6GfhquLf5D6Cpzo-7">
          <mxGeometry width="50" height="50" relative="1" as="geometry">
            <mxPoint x="280" y="730" as="sourcePoint" />
            <mxPoint x="347" y="675" as="targetPoint" />
          </mxGeometry>
        </mxCell>
        <mxCell id="ac8gZ6GfhquLf5D6Cpzo-10" value="" style="endArrow=classic;html=1;rounded=0;entryX=0;entryY=0.75;entryDx=0;entryDy=0;" edge="1" parent="1" source="ac8gZ6GfhquLf5D6Cpzo-6" target="ac8gZ6GfhquLf5D6Cpzo-8">
          <mxGeometry width="50" height="50" relative="1" as="geometry">
            <mxPoint x="287" y="775" as="sourcePoint" />
            <mxPoint x="337" y="725" as="targetPoint" />
          </mxGeometry>
        </mxCell>
        <mxCell id="ac8gZ6GfhquLf5D6Cpzo-11" value="A Record" style="rounded=1;whiteSpace=wrap;html=1;" vertex="1" parent="1">
          <mxGeometry x="562" y="666" width="90" height="30" as="geometry" />
        </mxCell>
        <mxCell id="ac8gZ6GfhquLf5D6Cpzo-12" value="A Record" style="rounded=1;whiteSpace=wrap;html=1;" vertex="1" parent="1">
          <mxGeometry x="562" y="766" width="90" height="30" as="geometry" />
        </mxCell>
        <mxCell id="ac8gZ6GfhquLf5D6Cpzo-13" value="" style="endArrow=classic;html=1;rounded=0;" edge="1" parent="1">
          <mxGeometry width="50" height="50" relative="1" as="geometry">
            <mxPoint x="469" y="679" as="sourcePoint" />
            <mxPoint x="560" y="679" as="targetPoint" />
          </mxGeometry>
        </mxCell>
        <mxCell id="ac8gZ6GfhquLf5D6Cpzo-14" value="" style="endArrow=classic;html=1;rounded=0;" edge="1" parent="1">
          <mxGeometry width="50" height="50" relative="1" as="geometry">
            <mxPoint x="468" y="780" as="sourcePoint" />
            <mxPoint x="559" y="780" as="targetPoint" />
          </mxGeometry>
        </mxCell>
        <mxCell id="ac8gZ6GfhquLf5D6Cpzo-15" value="US-East-1" style="text;html=1;align=center;verticalAlign=middle;whiteSpace=wrap;rounded=0;" vertex="1" parent="1">
          <mxGeometry x="440" y="460" width="60" height="30" as="geometry" />
        </mxCell>
        <mxCell id="ac8gZ6GfhquLf5D6Cpzo-16" value="US-West-2" style="text;html=1;align=center;verticalAlign=middle;whiteSpace=wrap;rounded=0;" vertex="1" parent="1">
          <mxGeometry x="433" y="561" width="70" height="30" as="geometry" />
        </mxCell>
        <mxCell id="ac8gZ6GfhquLf5D6Cpzo-17" value="US-West-2" style="text;html=1;align=center;verticalAlign=middle;whiteSpace=wrap;rounded=0;" vertex="1" parent="1">
          <mxGeometry x="386" y="801" width="70" height="30" as="geometry" />
        </mxCell>
        <mxCell id="ac8gZ6GfhquLf5D6Cpzo-18" value="US-East-1" style="text;html=1;align=center;verticalAlign=middle;whiteSpace=wrap;rounded=0;" vertex="1" parent="1">
          <mxGeometry x="389" y="695" width="60" height="30" as="geometry" />
        </mxCell>
      </root>
    </mxGraphModel>
  </diagram>
</mxfile>
